<svg height="480pt" viewBox="0 0 480 480" width="480pt" xmlns="http://www.w3.org/2000/svg"><path d="m454.785156 312.335938c-10.929687-19.023438-35.152344-25.679688-54.265625-14.902344l-94.480469 48.167968c-5.210937-6.003906-12.101562-10.304687-19.78125-12.355468l-98.90625-26.484375c-7.566406-2.042969-15.566406-1.800781-23 .6875l-33.953124 11.320312c-2.449219.8125-5.015626 1.230469-7.597657 1.230469h-26.800781v-32h-96v16h80v160h-80v16h96v-24h12.0625c1.960938 0 3.914062.242188 5.816406.71875l56.351563 14.082031c3.175781.796875 6.433593 1.199219 9.707031 1.199219h67.496094c7.019531.003906 13.917968-1.84375 20-5.351562l172.734375-99.71875c12.347656-7.160157 19.964843-20.335938 20-34.609376.007812-7.019531-1.851563-13.917968-5.382813-19.984374zm-22.625 40.734374-172.734375 99.730469c-3.652343 2.097657-7.789062 3.199219-12 3.199219h-67.488281c-1.960938 0-3.914062-.242188-5.816406-.71875l-56.351563-14.082031c-3.175781-.796875-6.433593-1.199219-9.707031-1.199219h-12.0625v-104h26.808594c4.300781 0 8.574218-.691406 12.65625-2.046875l33.949218-11.320313c4.457032-1.496093 9.257813-1.640624 13.792969-.417968l98.914063 26.496094c12.789062 3.488281 20.328125 16.683593 16.839844 29.472656-3.488282 12.789062-16.683594 20.328125-29.472657 16.839844l-75.601562-18.113282-3.726563 15.570313 75.382813 18.054687c14.164062 3.792969 29.265625-.46875 39.359375-11.101562 10.089844-10.632813 13.558594-25.9375 9.035156-39.882813l94.214844-48.054687c7.433594-4.25 16.5625-4.230469 23.976562.050781 7.414063 4.285156 11.996094 12.1875 12.023438 20.75-.015625 8.566406-4.582032 16.476563-11.992188 20.773437zm0 0"/><path d="m304 128c-53.019531 0-96 42.980469-96 96s42.980469 96 96 96 96-42.980469 96-96c-.058594-52.996094-43.003906-95.941406-96-96zm0 176c-44.183594 0-80-35.816406-80-80s35.816406-80 80-80 80 35.816406 80 80c-.046875 44.164062-35.835938 79.953125-80 80zm0 0"/><path d="m408 0c-39.765625 0-72 32.234375-72 72s32.234375 72 72 72 72-32.234375 72-72c-.042969-39.746094-32.253906-71.9570312-72-72zm0 128c-30.929688 0-56-25.070312-56-56s25.070312-56 56-56 56 25.070312 56 56c-.035156 30.914062-25.085938 55.964844-56 56zm0 0"/><path d="m408 48c4.417969 0 8 3.582031 8 8h16c-.042969-10.132812-6.445312-19.148438-16-22.527344v-9.472656h-16v9.472656c-11.011719 3.878906-17.621094 15.132813-15.644531 26.640625 1.980469 11.507813 11.96875 19.910157 23.644531 19.886719 4.417969 0 8 3.582031 8 8s-3.582031 8-8 8-8-3.582031-8-8h-16c.042969 10.132812 6.445312 19.148438 16 22.527344v9.472656h16v-9.472656c11.011719-3.878906 17.621094-15.132813 15.644531-26.640625-1.980469-11.507813-11.96875-19.910157-23.644531-19.886719-4.417969 0-8-3.582031-8-8s3.582031-8 8-8zm0 0"/><path d="m304 184c8.835938 0 16 7.164062 16 16h16c-.054688-14.546875-9.914062-27.226562-24-30.863281v-17.136719h-16v17.136719c-15.585938 4.011719-25.753906 18.992187-23.71875 34.957031 2.03125 15.96875 15.625 27.925781 31.71875 27.90625 8.835938 0 16 7.164062 16 16s-7.164062 16-16 16-16-7.164062-16-16h-16c.054688 14.546875 9.914062 27.226562 24 30.863281v17.136719h16v-17.136719c15.585938-4.011719 25.753906-18.992187 23.71875-34.957031-2.03125-15.96875-15.625-27.925781-31.71875-27.90625-8.835938 0-16-7.164062-16-16s7.164062-16 16-16zm0 0"/></svg>