<svg height="481pt" viewBox="0 0 481 481.39127" width="481pt" xmlns="http://www.w3.org/2000/svg"><path d="m480.195312 281.390625h-16v-64c-.027343-22.078125-17.917968-39.972656-40-40h-22.695312l21.601562-37.429687c3.183594-5.515626 4.046876-12.074219 2.398438-18.226563-1.652344-6.152344-5.679688-11.394531-11.199219-14.574219l-180.183593-104c-11.484376-6.542968-26.089844-2.617187-32.746094 8.800782l-95.472656 165.429687h-65.703126c-22.082031.027344-39.972656 17.921875-40 40v224c.027344 22.082031 17.917969 39.972656 40 40h384c22.082032-.027344 39.972657-17.917969 40-40v-64h16zm-70.925781-149.4375-44.730469 77.4375h-144.65625l84.855469-147.015625 101.601563 58.65625c3.773437 2.246094 5.070312 7.085938 2.929687 10.921875zm-244.816406 77.4375 98.75-170.992187 27.679687 16-89.464843 154.992187zm50.832031-189.429687c2.210938-3.816407 7.089844-5.121094 10.910156-2.921876l23.144532 13.359376-103.359375 178.992187h-40.089844zm232.910156 421.429687c0 13.253906-10.746093 24-24 24h-384c-13.253906 0-24-10.746094-24-24v-224c0-13.253906 10.746094-24 24-24h56.464844l-9.265625 16h-39.199219v16h368v-16h-33.183593l9.246093-16h31.9375c13.253907 0 24 10.746094 24 24v64h-88c-22.082031.027344-39.972656 17.921875-40 40v16c.027344 22.082031 17.917969 39.972656 40 40h88zm16-80h-104c-13.253906 0-24-10.746094-24-24v-16c0-13.253906 10.746094-24 24-24h104zm0 0"/><path d="m344.195312 329.390625c0 13.253906 10.746094 24 24 24 13.253907 0 24-10.746094 24-24s-10.746093-24-24-24c-13.253906 0-24 10.746094-24 24zm24-8c4.417969 0 8 3.582031 8 8s-3.582031 8-8 8c-4.417968 0-8-3.582031-8-8s3.582032-8 8-8zm0 0"/></svg>