<svg width="75" height="76" viewBox="0 0 75 76" fill="none" xmlns="http://www.w3.org/2000/svg">
<rect width="75" height="75" rx="13" fill="#2D9CDB"/>
<path d="M61.8659 32.3297C61.8171 32.5575 61.7113 32.7366 61.5485 32.8668C61.3858 32.997 61.2067 33.0621 61.0114 33.0621C60.7185 33.0621 60.4825 32.9726 60.3034 32.7935C60.1244 32.5982 60.0349 32.3785 60.0349 32.1343C60.0349 31.8902 60.0593 31.6542 60.1081 31.4263C60.1569 31.1822 60.1813 30.9462 60.1813 30.7183C60.1813 29.5302 59.8151 28.4641 59.0827 27.5201C58.3503 26.5761 57.3086 25.7867 55.9577 25.1519C54.6231 24.5009 52.9955 24.0045 51.0749 23.6627C49.1543 23.3209 47.014 23.15 44.654 23.15C42.8474 23.15 41.0244 23.272 39.1853 23.5162C37.3623 23.744 35.6045 24.0858 33.9118 24.5416C32.2354 24.981 30.6647 25.5425 29.1999 26.2261C27.7351 26.8935 26.4574 27.6747 25.3669 28.5699C24.2927 29.4488 23.4463 30.4335 22.8278 31.524C22.2093 32.5982 21.9001 33.7782 21.9001 35.064C21.9001 36.0569 22.1117 36.9358 22.5349 37.7007C22.9743 38.4494 23.5684 39.1086 24.3171 39.6783C25.0658 40.2317 25.9447 40.7118 26.9538 41.1187C27.9792 41.5093 29.086 41.843 30.2741 42.1197C31.4623 42.3801 32.6993 42.5998 33.9851 42.7789C35.2709 42.9416 36.5648 43.08 37.8669 43.1939L41.6267 43.5113C43.4984 43.6741 45.1748 43.845 46.656 44.024C48.1371 44.203 49.4392 44.4309 50.5622 44.7076C52.434 45.1796 53.8174 45.855 54.7126 46.7339C55.6078 47.6129 56.0554 48.7847 56.0554 50.2496C56.0554 51.6656 55.6647 52.9107 54.8835 53.9849C54.1022 55.0591 53.0362 55.9625 51.6853 56.6949C50.3343 57.4273 48.7556 57.9807 46.9489 58.355C45.1423 58.7294 43.2054 58.9166 41.1384 58.9166C38.8923 58.9166 36.9147 58.7619 35.2058 58.4527C33.5131 58.1597 32.0889 57.8342 30.9333 57.4761C29.794 57.1018 28.9232 56.76 28.321 56.4507C27.7188 56.1415 27.3933 55.9706 27.3444 55.938C27.0515 55.7753 26.905 55.5149 26.905 55.1568C26.905 54.8801 27.0026 54.6604 27.1979 54.4976C27.3933 54.3186 27.6048 54.2291 27.8327 54.2291C28.0118 54.2291 28.1745 54.2779 28.321 54.3755C28.3373 54.3755 28.614 54.522 29.1511 54.815C29.7045 55.0917 30.5183 55.4009 31.5925 55.7427C32.683 56.0845 34.0257 56.3938 35.6208 56.6705C37.2159 56.9472 39.0713 57.0855 41.1872 57.0855C43.2868 57.0855 45.1423 56.9146 46.7536 56.5728C48.3649 56.231 49.7159 55.759 50.8063 55.1568C51.9131 54.5383 52.7432 53.8222 53.2966 53.0084C53.8662 52.1783 54.1511 51.2831 54.1511 50.3228C54.1511 49.7532 54.0453 49.2649 53.8337 48.858C53.6384 48.4348 53.3617 48.0767 53.0036 47.7838C52.6455 47.4745 52.2142 47.2141 51.7097 47.0025C51.2214 46.7909 50.6843 46.6119 50.0983 46.4654C49.4798 46.3026 48.8125 46.1643 48.0964 46.0504C47.3965 45.9364 46.6722 45.8388 45.9235 45.7574C45.1748 45.676 44.418 45.6028 43.653 45.5377C42.9043 45.4726 42.1638 45.4075 41.4313 45.3423L37.6716 45.025C34.7093 44.7808 32.1215 44.4065 29.9079 43.9019C27.7106 43.3811 25.8796 42.7219 24.4147 41.9244C22.9499 41.1106 21.8513 40.1422 21.1188 39.0191C20.3864 37.8961 20.0202 36.5858 20.0202 35.0884C20.0202 33.5585 20.362 32.1588 21.0456 30.8892C21.7455 29.6034 22.6895 28.4478 23.8776 27.4224C25.0821 26.397 26.4818 25.51 28.0769 24.7613C29.6882 23.9963 31.4053 23.3616 33.2282 22.857C35.0511 22.3524 36.9392 21.9781 38.8923 21.7339C40.8454 21.4735 42.766 21.3433 44.654 21.3433C47.014 21.3433 49.0648 21.4898 50.8063 21.7828C52.5642 22.0595 54.0616 22.4257 55.2985 22.8814C56.5518 23.3209 57.5772 23.8254 58.3747 24.3951C59.1722 24.9647 59.8151 25.5263 60.3034 26.0797C61.459 27.4306 62.0368 28.9686 62.0368 30.6939C62.0368 31.2636 61.9798 31.8088 61.8659 32.3297Z" fill="white"/>
<path d="M61.8659 32.3297L60.889 32.116L60.8881 32.1201L61.8659 32.3297ZM61.5485 32.8668L60.9238 32.0859L61.5485 32.8668ZM60.3034 32.7935L59.5663 33.4692L59.5809 33.4853L59.5963 33.5006L60.3034 32.7935ZM60.1081 31.4263L61.086 31.6359L61.0887 31.6224L60.1081 31.4263ZM55.9577 25.1519L55.5193 26.0507L55.5258 26.0539L55.5324 26.057L55.9577 25.1519ZM51.0749 23.6627L50.8997 24.6472L51.0749 23.6627ZM39.1853 23.5162L39.3093 24.5085L39.3168 24.5075L39.1853 23.5162ZM33.9118 24.5416L34.1654 25.5089L34.1718 25.5072L33.9118 24.5416ZM29.1999 26.2261L29.6145 27.1362L29.6228 27.1323L29.1999 26.2261ZM25.3669 28.5699L26.0001 29.3438L26.0014 29.3428L25.3669 28.5699ZM22.8278 31.524L23.6945 32.023L23.6977 32.0173L22.8278 31.524ZM22.5349 37.7007L21.6598 38.1848L21.666 38.196L21.6724 38.2069L22.5349 37.7007ZM24.3171 39.6783L23.7115 40.4742L23.7227 40.4825L24.3171 39.6783ZM26.9538 41.1187L26.5798 42.0462L26.5888 42.0498L26.5978 42.0532L26.9538 41.1187ZM30.2741 42.1197L30.0473 43.0937L30.06 43.0965L30.2741 42.1197ZM33.9851 42.7789L33.8471 43.7694L33.8595 43.771L33.9851 42.7789ZM37.8669 43.1939L37.7797 44.1901L37.7828 44.1904L37.8669 43.1939ZM41.6267 43.5113L41.7133 42.515L41.7108 42.5148L41.6267 43.5113ZM50.5622 44.7076L50.8067 43.7379L50.8014 43.7366L50.5622 44.7076ZM35.2058 58.4527L35.3838 57.4686L35.3763 57.4673L35.2058 58.4527ZM30.9333 57.4761L30.6211 58.4262L30.6292 58.4288L30.6373 58.4313L30.9333 57.4761ZM28.321 56.4507L27.8642 57.3403L28.321 56.4507ZM27.3444 55.938L27.8991 55.106L27.8655 55.0835L27.8301 55.0639L27.3444 55.938ZM27.1979 54.4976L27.8381 55.2658L27.8563 55.2507L27.8737 55.2348L27.1979 54.4976ZM28.321 54.3755L27.7663 55.2076L28.0182 55.3755H28.321V54.3755ZM29.1511 54.815L28.6722 55.6929L28.6879 55.7014L28.7039 55.7094L29.1511 54.815ZM31.5925 55.7427L31.2893 56.6957L31.2934 56.697L31.5925 55.7427ZM50.8063 55.1568L51.2898 56.0322L51.2942 56.0297L50.8063 55.1568ZM53.2966 53.0084L52.4721 52.4425L52.4697 52.4461L53.2966 53.0084ZM53.8337 48.858L52.9257 49.277L52.9356 49.2984L52.9465 49.3193L53.8337 48.858ZM53.0036 47.7838L52.35 48.5406L52.3601 48.5493L52.3704 48.5577L53.0036 47.7838ZM51.7097 47.0025L51.312 47.9201L51.3229 47.9247L51.7097 47.0025ZM50.0983 46.4654L49.8438 47.4325L49.8558 47.4355L50.0983 46.4654ZM48.0964 46.0504L47.9357 47.0374L47.9393 47.0379L48.0964 46.0504ZM43.653 45.5377L43.5664 46.5339L43.5682 46.5341L43.653 45.5377ZM41.4313 45.3423L41.5199 44.3463L41.5155 44.3459L41.4313 45.3423ZM37.6716 45.025L37.7557 44.0285L37.7537 44.0283L37.6716 45.025ZM29.9079 43.9019L29.6773 44.875L29.6857 44.8769L29.9079 43.9019ZM24.4147 41.9244L23.9291 42.7986L23.9366 42.8026L24.4147 41.9244ZM21.0456 30.8892L20.1673 30.4111L20.1651 30.4151L21.0456 30.8892ZM23.8776 27.4224L23.2294 26.661L23.2243 26.6654L23.8776 27.4224ZM28.0769 24.7613L28.5018 25.6665L28.5057 25.6647L28.0769 24.7613ZM38.8923 21.7339L39.0163 22.7263L39.0244 22.7252L38.8923 21.7339ZM50.8063 21.7828L50.6404 22.769L50.6509 22.7706L50.8063 21.7828ZM55.2985 22.8814L54.9528 23.8198L54.9602 23.8225L54.9676 23.8251L55.2985 22.8814ZM60.3034 26.0797L61.0633 25.4296L61.0583 25.4238L61.0533 25.418L60.3034 26.0797ZM60.8881 32.1201C60.8836 32.1412 60.8809 32.1398 60.889 32.1261C60.8929 32.1196 60.8982 32.112 60.9049 32.1043C60.9116 32.0965 60.9182 32.0904 60.9238 32.0859L62.1732 33.6476C62.5374 33.3563 62.7526 32.9642 62.8437 32.5392L60.8881 32.1201ZM60.9238 32.0859C60.9195 32.0893 60.9284 32.0815 60.9504 32.0735C60.9732 32.0652 60.9955 32.0621 61.0114 32.0621V34.0621C61.4497 34.0621 61.8459 33.9095 62.1732 33.6476L60.9238 32.0859ZM61.0114 32.0621C60.989 32.0621 60.9755 32.0604 60.9692 32.0593C60.9632 32.0583 60.9639 32.0579 60.9694 32.0599C60.975 32.0621 60.9829 32.0658 60.9916 32.0714C61.0003 32.0771 61.0067 32.0826 61.0105 32.0864L59.5963 33.5006C59.9925 33.8968 60.4983 34.0621 61.0114 34.0621V32.0621ZM61.0406 32.1178C61.0309 32.1073 61.0266 32.1009 61.0255 32.0992C61.0245 32.0976 61.0259 32.0996 61.0281 32.1049C61.0303 32.1104 61.0323 32.1168 61.0335 32.1234C61.0348 32.1299 61.0349 32.1339 61.0349 32.1343H59.0349C59.0349 32.651 59.2339 33.1066 59.5663 33.4692L61.0406 32.1178ZM61.0349 32.1343C61.0349 31.9573 61.0525 31.7917 61.0859 31.6359L59.1303 31.2168C59.066 31.5167 59.0349 31.8231 59.0349 32.1343H61.0349ZM61.0887 31.6224C61.1493 31.3196 61.1813 31.0178 61.1813 30.7183H59.1813C59.1813 30.8746 59.1646 31.0448 59.1275 31.2302L61.0887 31.6224ZM61.1813 30.7183C61.1813 29.3069 60.7405 28.0254 59.8728 26.9071L58.2926 28.1331C58.8898 28.9028 59.1813 29.7535 59.1813 30.7183H61.1813ZM59.8728 26.9071C59.0224 25.811 57.842 24.9324 56.383 24.2469L55.5324 26.057C56.7753 26.641 57.6782 27.3411 58.2926 28.1331L59.8728 26.9071ZM56.3961 24.2531C54.9568 23.551 53.2352 23.0314 51.2501 22.6781L50.8997 24.6472C52.7558 24.9775 54.2894 25.4507 55.5193 26.0507L56.3961 24.2531ZM51.2501 22.6781C49.2612 22.3242 47.061 22.15 44.654 22.15V24.15C46.967 24.15 49.0475 24.3176 50.8997 24.6472L51.2501 22.6781ZM44.654 22.15C42.8022 22.15 40.9353 22.2751 39.0537 22.5249L39.3168 24.5075C41.1136 24.269 42.8925 24.15 44.654 24.15V22.15ZM39.0612 22.5239C37.1946 22.7572 35.3913 23.1076 33.6518 23.5759L34.1718 25.5072C35.8178 25.064 37.5301 24.7309 39.3093 24.5085L39.0612 22.5239ZM33.6582 23.5742C31.9278 24.0279 30.3001 24.6092 28.777 25.32L29.6228 27.1323C31.0294 26.4759 32.543 25.9342 34.1654 25.5089L33.6582 23.5742ZM28.7853 25.3161C27.2524 26.0144 25.8986 26.8396 24.7324 27.797L26.0014 29.3428C27.0162 28.5098 28.2177 27.7725 29.6145 27.1362L28.7853 25.3161ZM24.7337 27.7959C23.5741 28.7446 22.6435 29.8219 21.958 31.0306L23.6977 32.0173C24.2491 31.0451 25.0112 30.153 26.0001 29.3438L24.7337 27.7959ZM21.9612 31.025C21.252 32.2568 20.9001 33.6099 20.9001 35.064H22.9001C22.9001 33.9465 23.1667 32.9396 23.6945 32.023L21.9612 31.025ZM20.9001 35.064C20.9001 36.2029 21.1441 37.2525 21.6598 38.1848L23.4099 37.2167C23.0793 36.619 22.9001 35.9108 22.9001 35.064H20.9001ZM21.6724 38.2069C22.1832 39.0771 22.8679 39.8322 23.7116 40.4741L24.9226 38.8825C24.2689 38.385 23.7654 37.8218 23.3973 37.1945L21.6724 38.2069ZM23.7227 40.4825C24.5497 41.0937 25.5052 41.6128 26.5798 42.0462L27.3278 40.1913C26.3842 39.8108 25.5819 39.3697 24.9115 38.8741L23.7227 40.4825ZM26.5978 42.0532C27.6697 42.4615 28.82 42.8078 30.0473 43.0936L30.5009 41.1458C29.3519 40.8782 28.2887 40.5571 27.3098 40.1842L26.5978 42.0532ZM30.06 43.0965C31.275 43.3628 32.5375 43.587 33.8471 43.7693L34.123 41.7884C32.861 41.6127 31.6495 41.3974 30.4882 41.1429L30.06 43.0965ZM33.8595 43.771C35.1582 43.9353 36.4649 44.0751 37.7797 44.1901L37.9541 42.1977C36.6647 42.0849 35.3836 41.9479 34.1106 41.7868L33.8595 43.771ZM37.7828 44.1904L41.5425 44.5077L41.7108 42.5148L37.951 42.1975L37.7828 44.1904ZM41.54 44.5075C43.4033 44.6696 45.0683 44.8394 46.536 45.0168L46.776 43.0312C45.2813 42.8505 43.5935 42.6785 41.7133 42.5151L41.54 44.5075ZM46.536 45.0168C47.9878 45.1923 49.2485 45.4138 50.323 45.6785L50.8014 43.7366C49.6298 43.4479 48.2864 43.2138 46.776 43.0312L46.536 45.0168ZM50.3177 45.6772C52.1024 46.1273 53.294 46.7426 54.012 47.4475L55.4132 46.0204C54.3408 44.9675 52.7655 44.2319 50.8067 43.7379L50.3177 45.6772ZM54.012 47.4475C54.6835 48.1068 55.0554 49.0044 55.0554 50.2496H57.0554C57.0554 48.565 56.5321 47.1189 55.4132 46.0204L54.012 47.4475ZM55.0554 50.2496C55.0554 51.4691 54.7233 52.5051 54.0748 53.3968L55.6922 54.5731C56.6062 53.3164 57.0554 51.8621 57.0554 50.2496H55.0554ZM54.0748 53.3968C53.3939 54.3329 52.449 55.1433 51.2086 55.8158L52.1619 57.574C53.6233 56.7817 54.8106 55.7854 55.6922 54.5731L54.0748 53.3968ZM51.2086 55.8158C49.9588 56.4934 48.4756 57.0175 46.746 57.3758L47.1518 59.3342C49.0356 58.9439 50.7099 58.3612 52.1619 57.574L51.2086 55.8158ZM46.746 57.3758C45.0136 57.7348 43.1453 57.9166 41.1384 57.9166V59.9166C43.2656 59.9166 45.271 59.724 47.1518 59.3342L46.746 57.3758ZM41.1384 57.9166C38.9356 57.9166 37.0199 57.7647 35.3838 57.4687L35.0277 59.4367C36.8096 59.7592 38.8489 59.9166 41.1384 59.9166V57.9166ZM35.3763 57.4673C33.71 57.1789 32.3307 56.8622 31.2293 56.5209L30.6373 58.4313C31.8471 58.8062 33.3161 59.1405 35.0352 59.438L35.3763 57.4673ZM31.2455 56.5261C30.1242 56.1577 29.311 55.835 28.7778 55.5612L27.8642 57.3403C28.5354 57.685 29.4638 58.0459 30.6211 58.4262L31.2455 56.5261ZM28.7778 55.5612C28.4776 55.407 28.2488 55.2886 28.09 55.2052C28.0103 55.1634 27.9511 55.1319 27.9104 55.1098C27.8515 55.0777 27.866 55.0839 27.8991 55.106L26.7897 56.7701C26.87 56.8236 27.0278 56.9064 27.1604 56.976C27.3271 57.0636 27.5622 57.1852 27.8642 57.3403L28.7778 55.5612ZM27.8301 55.0639C27.8252 55.0612 27.8326 55.0646 27.8458 55.0773C27.8596 55.0906 27.8743 55.1088 27.8864 55.1304C27.9126 55.177 27.905 55.1981 27.905 55.1568H25.905C25.905 55.4735 25.9706 55.8039 26.1433 56.1109C26.3179 56.4214 26.5708 56.6522 26.8588 56.8122L27.8301 55.0639ZM27.905 55.1568C27.905 55.1374 27.908 55.1548 27.892 55.1906C27.8845 55.2076 27.8747 55.224 27.8637 55.2384C27.8527 55.2527 27.8432 55.2616 27.8381 55.2658L26.5578 53.7294C26.1125 54.1004 25.905 54.6131 25.905 55.1568H27.905ZM27.8737 55.2348C27.8998 55.2108 27.9069 55.2112 27.8928 55.2172C27.8859 55.2201 27.8763 55.2233 27.8645 55.2257C27.8527 55.2281 27.8417 55.2291 27.8327 55.2291V53.2291C27.3144 53.2291 26.8699 53.4417 26.5222 53.7605L27.8737 55.2348ZM27.8327 55.2291C27.8301 55.2291 27.8184 55.2285 27.8017 55.2235C27.7849 55.2185 27.7725 55.2117 27.7663 55.2076L28.8757 53.5435C28.562 53.3344 28.2056 53.2291 27.8327 53.2291V55.2291ZM28.321 55.3755C28.2362 55.3755 28.1699 55.3646 28.1377 55.3585C28.1007 55.3516 28.0711 55.3439 28.0525 55.3386C28.016 55.3284 27.9884 55.3182 27.976 55.3136C27.9499 55.3038 27.9318 55.2956 27.9289 55.2943C27.9205 55.2905 27.9204 55.2903 27.9348 55.2974C27.9608 55.3105 28.0055 55.3336 28.0728 55.3692C28.2055 55.4394 28.4046 55.5469 28.6722 55.6929L29.6299 53.9371C29.3605 53.7901 29.1526 53.6779 29.0086 53.6016C28.9375 53.564 28.8765 53.5322 28.8292 53.5086C28.807 53.4975 28.7785 53.4835 28.7497 53.4705C28.7367 53.4646 28.7104 53.453 28.6782 53.4409C28.6628 53.4351 28.6326 53.4242 28.594 53.4133C28.5783 53.4089 28.4666 53.3755 28.321 53.3755V55.3755ZM28.7039 55.7094C29.3269 56.0209 30.1988 56.3487 31.2893 56.6957L31.8957 54.7898C30.8378 54.4532 30.0821 54.1625 29.5983 53.9206L28.7039 55.7094ZM31.2934 56.697C32.4392 57.0561 33.8278 57.3744 35.4499 57.6558L35.7917 55.6852C34.2237 55.4132 32.9268 55.113 31.8916 54.7885L31.2934 56.697ZM35.4499 57.6558C37.1155 57.9447 39.0304 58.0855 41.1872 58.0855V56.0855C39.1123 56.0855 37.3162 55.9496 35.7917 55.6852L35.4499 57.6558ZM41.1872 58.0855C43.3385 58.0855 45.266 57.9106 46.9611 57.551L46.5461 55.5946C45.0186 55.9186 43.2351 56.0855 41.1872 56.0855V58.0855ZM46.9611 57.551C48.6399 57.195 50.0902 56.6946 51.2898 56.0322L50.3229 54.2814C49.3415 54.8234 48.09 55.2671 46.5461 55.5946L46.9611 57.551ZM51.2942 56.0297C52.4987 55.3566 53.4613 54.5445 54.1235 53.5707L52.4697 52.4461C52.0251 53.0998 51.3275 53.72 50.3185 54.2839L51.2942 56.0297ZM54.1211 53.5742C54.7992 52.5861 55.1511 51.4952 55.1511 50.3228H53.1511C53.1511 51.071 52.9333 51.7705 52.4721 52.4425L54.1211 53.5742ZM55.1511 50.3228C55.1511 49.6307 55.0224 48.9764 54.7209 48.3966L52.9465 49.3193C53.0682 49.5533 53.1511 49.8756 53.1511 50.3228H55.1511ZM54.7417 48.4389C54.4833 47.8792 54.1131 47.3995 53.6369 47.0098L52.3704 48.5577C52.6103 48.754 52.7934 48.9904 52.9257 49.277L54.7417 48.4389ZM53.6572 47.0269C53.2081 46.639 52.6832 46.3264 52.0964 46.0803L51.3229 47.9247C51.7453 48.1018 52.083 48.31 52.35 48.5406L53.6572 47.0269ZM52.1073 46.0849C51.5627 45.8489 50.9729 45.6533 50.3409 45.4953L49.8558 47.4355C50.3957 47.5705 50.8801 47.7329 51.3121 47.9201L52.1073 46.0849ZM50.3528 45.4983C49.6983 45.3261 48.9982 45.1812 48.2535 45.0628L47.9393 47.0379C48.6269 47.1473 49.2614 47.2792 49.8438 47.4325L50.3528 45.4983ZM48.2571 45.0633C47.5387 44.9464 46.7968 44.8464 46.0316 44.7632L45.8155 46.7515C46.5477 46.8311 47.2543 46.9264 47.9357 47.0374L48.2571 45.0633ZM46.0316 44.7632C45.275 44.681 44.5104 44.607 43.7378 44.5413L43.5682 46.5341C44.3256 46.5985 45.0747 46.671 45.8155 46.7515L46.0316 44.7632ZM43.7397 44.5414C42.9916 44.4764 42.2517 44.4113 41.5199 44.3463L41.3428 46.3384C42.0759 46.4036 42.8171 46.4687 43.5664 46.5339L43.7397 44.5414ZM41.5155 44.3459L37.7557 44.0285L37.5875 46.0214L41.3472 46.3388L41.5155 44.3459ZM37.7537 44.0283C34.8251 43.787 32.286 43.4183 30.1302 42.9269L29.6857 44.8769C31.9569 45.3946 34.5936 45.7747 37.5894 46.0216L37.7537 44.0283ZM30.1386 42.9289C27.9994 42.4218 26.2579 41.7892 24.8929 41.0461L23.9366 42.8026C25.5013 43.6546 27.4219 44.3404 29.6773 44.875L30.1386 42.9289ZM24.9004 41.0502C23.5429 40.2961 22.5805 39.4297 21.9565 38.4728L20.2812 39.5654C21.122 40.8546 22.3569 41.9251 23.9291 42.7985L24.9004 41.0502ZM21.9565 38.4728C21.3421 37.5309 21.0202 36.4153 21.0202 35.0884H19.0202C19.0202 36.7564 19.4307 38.2613 20.2812 39.5654L21.9565 38.4728ZM21.0202 35.0884C21.0202 33.7136 21.3257 32.4782 21.9261 31.3633L20.1651 30.4151C19.3983 31.8393 19.0202 33.4034 19.0202 35.0884H21.0202ZM21.9239 31.3673C22.5622 30.1947 23.4274 29.1319 24.531 28.1795L23.2243 26.6654C21.9516 27.7637 20.9288 29.0121 20.1673 30.4111L21.9239 31.3673ZM24.5259 28.1839C25.6554 27.2222 26.9782 26.3817 28.5018 25.6665L27.6519 23.8561C25.9854 24.6383 24.5087 25.5718 23.2294 26.661L24.5259 28.1839ZM28.5057 25.6647C30.0618 24.9259 31.7244 24.3108 33.495 23.8208L32.9615 21.8932C31.0862 22.4123 29.3145 23.0667 27.648 23.8579L28.5057 25.6647ZM33.495 23.8208C35.2692 23.3297 37.1095 22.9646 39.0163 22.7262L38.7682 20.7417C36.7689 20.9916 34.8331 21.3752 32.9615 21.8932L33.495 23.8208ZM39.0244 22.7252C40.9357 22.4703 42.8121 22.3433 44.654 22.3433V20.3433C42.7199 20.3433 40.7552 20.4767 38.7601 20.7427L39.0244 22.7252ZM44.654 22.3433C46.9757 22.3433 48.9685 22.4876 50.6405 22.7689L50.9722 20.7966C49.1612 20.492 47.0524 20.3433 44.654 20.3433V22.3433ZM50.6509 22.7706C52.3647 23.0404 53.7946 23.393 54.9528 23.8198L55.6442 21.9431C54.3285 21.4583 52.7636 21.0786 50.9618 20.7949L50.6509 22.7706ZM54.9676 23.8251C56.1611 24.2436 57.0946 24.7096 57.7935 25.2088L58.9559 23.5813C58.0598 22.9412 56.9425 22.3982 55.6294 21.9377L54.9676 23.8251ZM57.7935 25.2088C58.548 25.7478 59.1288 26.2599 59.5536 26.7413L61.0533 25.418C60.5014 24.7926 59.7964 24.1817 58.9559 23.5813L57.7935 25.2088ZM59.5435 26.7297C60.5493 27.9055 61.0368 29.2148 61.0368 30.6939H63.0368C63.0368 28.7225 62.3687 26.9556 61.0633 25.4296L59.5435 26.7297ZM61.0368 30.6939C61.0368 31.1966 60.9866 31.6699 60.889 32.116L62.8428 32.5433C62.9731 31.9477 63.0368 31.3305 63.0368 30.6939H61.0368Z" fill="white"/>
</svg>
