<svg xmlns="http://www.w3.org/2000/svg" width="256" height="256"><path fill-opacity=".016" d="M0 128.004v128.004l128.25-.254 128.25-.254.254-127.75L257.008 0H0v128.004m.485.496c0 70.4.119 99.053.265 63.672.146-35.38.146-92.98 0-128C.604 29.153.485 58.1.485 128.5" fill="#1976D2" fill-rule="evenodd"/><path fill-opacity=".135" d="M9.264 4.558c-2.396 1.436-5.329 4.403-6.75 6.828L0 15.676v111.712c0 122.628-.441 114.036 6.165 120.25 7.28 6.849-2.036 6.362 121.58 6.362h111.843l5.456-3.26c3.954-2.361 6.163-4.568 8.025-8.014 1.413-2.615 2.876-4.448 3.25-4.074.375.375.629-50.131.565-112.235-.064-62.105-.323-112.123-.576-111.153-.344 1.318-1.028.687-2.71-2.5-1.238-2.345-4.164-5.726-6.502-7.514L242.845 2l-114.673.009-114.672.01-4.236 2.539M.483 127.5c0 62.15.12 87.428.267 56.173.147-31.255.147-82.105 0-113C.603 39.778.483 65.35.483 127.5M125 49.636c0 5.783 2.783 69.363 3.452 78.864.271 3.85.505 9.133.52 11.741l.028 4.741 4.75-2.864c5.81-3.502 86.662-47.448 90.5-49.191 1.512-.686 2.75-1.551 2.75-1.922s-4.838-2.839-10.75-5.483A3201.028 3201.028 0 01199 77.746c-6.33-2.889-13.923-6.296-53.772-24.124C134.629 48.88 125.741 45 125.478 45c-.263 0-.478 2.086-.478 4.636M51.918 96.077L27.355 145h99.306l-23.28-45.75c-12.804-25.163-24.094-47.178-25.09-48.923l-1.81-3.173-24.563 48.923" fill="#1976D2" fill-rule="evenodd"/><path fill-opacity=".166" d="M11.5 3.388C7.257 5.239 1.222 12.276.518 16.19.191 18.011.053 69.296.212 130.157L.5 240.815l3.068 3.842c1.688 2.114 5.288 5.044 8 6.512l4.932 2.668 111.75.082c61.463.044 111.75-.279 111.75-.718 0-.44 1.536-1.355 3.414-2.034 3.965-1.433 10.251-7.982 11.167-11.635.348-1.385 1.034-2.27 1.526-1.966.522.323.845-45.84.777-111.257-.064-61.495-.325-111.006-.58-110.024-.335 1.289-1.178.353-3.031-3.365-1.804-3.621-3.917-6.007-7.116-8.035L241.608 2l-113.554.039C36.727 2.071 13.913 2.335 11.5 3.388M.483 127.5c0 61.6.12 86.653.267 55.673.147-30.98.147-81.38 0-112C.603 40.553.483 65.9.483 127.5m124.055-78.75c.244 2.612 1.135 22.975 1.981 45.25.846 22.275 1.775 42.807 2.066 45.626l.528 5.126 9.693-5.236c18.861-10.187 45.753-24.799 50.194-27.274 2.475-1.379 11.475-6.251 20-10.826 8.525-4.576 16.285-8.903 17.245-9.618 1.866-1.388 2.361-1.147-58.245-28.33-11.825-5.303-26.357-11.853-32.293-14.555S124.729 44 124.504 44c-.225 0-.21 2.138.034 4.75m-72.97 47.114C38.056 122.884 27 145.219 27 145.496c0 .277 22.5.504 50 .504s50-.281 50-.625-6.25-12.832-13.89-27.75A35910.898 35910.898 0 0188.517 69.5c-5.887-11.55-11.08-21.397-11.542-21.882-.464-.487-11.832 21.1-25.407 48.246" fill="#1976D2" fill-rule="evenodd"/><path fill-opacity=".348" d="M13.211 3.129C8.754 4.414 2.366 11.021 1.071 15.685c-1.565 5.635-1.48 218.818.089 223.416.638 1.869 2.022 4.524 3.076 5.899 2.299 3 8.578 6.988 11.014 6.995.962.003 1.75.455 1.75 1.005 0 .661 37.5 1 110.5 1s110.5-.339 110.5-1c0-.55.693-1 1.54-1 5.387 0 13.388-7.594 15.006-14.243.367-1.509 1.069-2.495 1.561-2.191.522.323.864-45.027.823-109.257-.039-60.395-.383-109.02-.764-108.056-.525 1.326-1.119.559-2.436-3.152-2.034-5.726-6.998-10.526-12.453-12.041-4.913-1.364-223.325-1.298-228.066.069M.483 127.5c0 60.5.12 85.103.267 54.673.147-30.43.147-79.93 0-110C.603 42.103.483 67 .483 127.5m123.898-72.75c1.047 17.632 3.781 89.421 3.419 89.783-.184.184-11.518-21.573-25.187-48.349-13.668-26.776-25.217-49.081-25.664-49.566-.447-.485-12.095 21.677-25.883 49.25L25.996 146H126.863l-17.672 18.25a56788.81 56788.81 0 00-26.495 27.377l-8.823 9.127 3.314.602c1.822.331 19.288 2.637 38.813 5.124 19.525 2.487 36.738 4.782 38.25 5.1 1.512.319 2.75.163 2.75-.345 0-.509-6.075-14.831-13.5-31.827-7.425-16.997-13.5-31.351-13.5-31.899 0-.547 12.302 11.301 27.338 26.329l27.338 27.325 2.313-14.832c1.271-8.157 4.184-26.306 6.473-40.331 2.288-14.025 3.908-25.61 3.599-25.744-.309-.134-14.49 4.912-31.515 11.213-17.025 6.301-31.049 11.361-31.166 11.244-.117-.117 5.937-3.553 13.454-7.636 7.516-4.083 20.416-11.098 28.666-15.589s23.1-12.554 33-17.916c9.9-5.363 18.362-10.095 18.804-10.515.443-.421-3.382-2.591-8.5-4.822-5.117-2.231-18.754-8.316-30.304-13.521C140.204 50.498 125.532 44 124.664 44c-.544 0-.66 4.401-.283 10.75" fill="#1976D2" fill-rule="evenodd"/></svg>